<svg xmlns="http://www.w3.org/2000/svg" width="240" height="160">
  <!-- Row 1: corner-L, dot, up-chevron, curved-r, dot -->
  <path d="M10,10 L10,28 L28,28" fill="none" stroke="white" stroke-width="2.5" stroke-linecap="round" stroke-linejoin="round" opacity="0.22"/>
  <circle cx="50" cy="18" r="3.5" fill="white" opacity="0.22"/>
  <path d="M68,28 L80,12 L92,28" fill="none" stroke="white" stroke-width="2.5" stroke-linecap="round" stroke-linejoin="round" opacity="0.22"/>
  <path d="M112,12 Q134,12 134,30" fill="none" stroke="white" stroke-width="2.5" stroke-linecap="round" opacity="0.22"/>
  <circle cx="165" cy="16" r="3.5" fill="white" opacity="0.22"/>
  <path d="M190,10 L190,28 L208,28" fill="none" stroke="white" stroke-width="2.5" stroke-linecap="round" stroke-linejoin="round" opacity="0.22"/>

  <!-- Row 2: vertical, dash, big-O, dash, vertical -->
  <line x1="18" y1="40" x2="18" y2="60" stroke="white" stroke-width="2.5" stroke-linecap="round" opacity="0.22"/>
  <line x1="36" y1="50" x2="60" y2="50" stroke="white" stroke-width="2.5" stroke-linecap="round" opacity="0.22"/>
  <circle cx="88" cy="54" r="18" fill="none" stroke="white" stroke-width="2.5" opacity="0.22"/>
  <line x1="116" y1="50" x2="140" y2="50" stroke="white" stroke-width="2.5" stroke-linecap="round" opacity="0.22"/>
  <line x1="162" y1="40" x2="162" y2="60" stroke="white" stroke-width="2.5" stroke-linecap="round" opacity="0.22"/>
  <line x1="196" y1="50" x2="220" y2="50" stroke="white" stroke-width="2.5" stroke-linecap="round" opacity="0.22"/>

  <!-- Row 3: curved-r, dot, right-chevron, J-shape, L-rotated -->
  <path d="M10,70 L10,90 Q10,102 22,102" fill="none" stroke="white" stroke-width="2.5" stroke-linecap="round" opacity="0.22"/>
  <circle cx="48" cy="84" r="3.5" fill="white" opacity="0.22"/>
  <path d="M64,74 L78,84 L64,94" fill="none" stroke="white" stroke-width="2.5" stroke-linecap="round" stroke-linejoin="round" opacity="0.22"/>
  <path d="M130,70 L130,92 Q130,104 118,104" fill="none" stroke="white" stroke-width="2.5" stroke-linecap="round" opacity="0.22"/>
  <path d="M158,100 L158,78 L178,78" fill="none" stroke="white" stroke-width="2.5" stroke-linecap="round" stroke-linejoin="round" opacity="0.22"/>
  <circle cx="210" cy="84" r="3.5" fill="white" opacity="0.22"/>

  <!-- Row 4: dot, right-chevron, dash-accent, J-shape, small-O, left-chevron -->
  <circle cx="18" cy="120" r="3.5" fill="white" opacity="0.22"/>
  <path d="M34,112 L48,122 L34,132" fill="none" stroke="white" stroke-width="2.5" stroke-linecap="round" stroke-linejoin="round" opacity="0.22"/>
  <line x1="62" y1="122" x2="86" y2="122" stroke="white" stroke-width="2.5" stroke-linecap="round" opacity="0.38"/>
  <path d="M102,110 L102,130 Q102,142 90,142" fill="none" stroke="white" stroke-width="2.5" stroke-linecap="round" opacity="0.22"/>
  <circle cx="134" cy="122" r="14" fill="none" stroke="white" stroke-width="2.5" opacity="0.22"/>
  <path d="M168,112 L154,122 L168,132" fill="none" stroke="white" stroke-width="2.5" stroke-linecap="round" stroke-linejoin="round" opacity="0.22"/>
  <line x1="194" y1="122" x2="218" y2="122" stroke="white" stroke-width="2.5" stroke-linecap="round" opacity="0.22"/>

  <!-- Row 5: down-chevron, vertical, dot, left-chevron, dash, vertical -->
  <path d="M10,145 L22,158 L34,145" fill="none" stroke="white" stroke-width="2.5" stroke-linecap="round" stroke-linejoin="round" opacity="0.22"/>
  <line x1="54" y1="142" x2="54" y2="158" stroke="white" stroke-width="2.5" stroke-linecap="round" opacity="0.22"/>
  <circle cx="78" cy="150" r="3.5" fill="white" opacity="0.22"/>
  <path d="M106,142 L92,150 L106,158" fill="none" stroke="white" stroke-width="2.5" stroke-linecap="round" stroke-linejoin="round" opacity="0.22"/>
  <line x1="122" y1="150" x2="148" y2="150" stroke="white" stroke-width="2.5" stroke-linecap="round" opacity="0.22"/>
  <line x1="168" y1="142" x2="168" y2="158" stroke="white" stroke-width="2.5" stroke-linecap="round" opacity="0.22"/>
  <path d="M186,145 L200,158 L214,145" fill="none" stroke="white" stroke-width="2.5" stroke-linecap="round" stroke-linejoin="round" opacity="0.22"/>
</svg>
